<?xml version="1.0" encoding="utf-8"?>
<!-- Generator: Adobe Illustrator 23.0.3, SVG Export Plug-In . SVG Version: 6.00 Build 0)  -->
<svg version="1.1" id="Capa_1" xmlns="http://www.w3.org/2000/svg" xmlns:xlink="http://www.w3.org/1999/xlink" x="0px" y="0px"
	 width="24px" height="24px" viewBox="0 0 24 24" style="enable-background:new 0 0 24 24;" xml:space="preserve">
<style type="text/css">
	.st0{fill:#FFFFFF;}
</style>
<path class="st0" d="M10.3,12c-0.5,0-0.9-0.2-1.2-0.5c-0.3-0.3-0.4-0.8-0.3-1.2l0.3-1.8c0.1-0.7,0.5-1.3,1-1.8C10.7,6.2,11.3,6,12,6
	c0.7,0,1.4,0.2,1.9,0.7c0.5,0.5,0.9,1,1,1.8l0.3,1.8c0.1,0.5,0,0.9-0.3,1.2c-0.3,0.4-0.7,0.5-1.2,0.5H10.3z M10.9,10h2.3l-0.2-1.2
	c0-0.2-0.1-0.4-0.3-0.6S12.2,8,12,8s-0.4,0.1-0.6,0.2c-0.2,0.1-0.3,0.3-0.3,0.6L10.9,10z M3.1,13c-0.4,0-0.7-0.1-1-0.2
	c-0.3-0.2-0.5-0.4-0.5-0.8c0-0.1,0-0.3,0-0.4c0-0.1,0.1-0.3,0.1-0.4c0,0,0,0,0-0.1c0,0-0.1-0.2-0.3-0.6c0-0.2,0-0.4,0.1-0.6
	s0.2-0.3,0.3-0.5l0,0C1.9,9,2,8.7,2.2,8.5c0.2-0.2,0.5-0.3,0.8-0.3c0,0,0.2,0,0.5,0.1l0.1,0C3.7,8.2,3.8,8.1,4,8.1
	C4.1,8,4.2,8,4.4,8c0.2,0,0.3,0,0.5,0.1C5,8.1,5.1,8.2,5.2,8.3c0,0,0,0,0,0c0,0,0,0,0,0c0.2,0,0.4,0.1,0.6,0.2
	c0.2,0.1,0.3,0.3,0.4,0.5c0,0.1,0,0.2,0,0.3s0,0.2-0.1,0.3c0,0,0,0.1,0,0.1c0.1,0.1,0.2,0.2,0.3,0.4c0.1,0.1,0.1,0.3,0.1,0.4
	c0,0.1-0.1,0.2-0.2,0.5c0,0,0,0.1,0,0.1l0.1,0.4c0,0.4-0.1,0.6-0.4,0.9C5.8,12.8,5.5,13,5.1,13H3.1z M20,13c-0.5,0-1-0.2-1.4-0.6
	C18.2,12,18,11.6,18,11c0-0.2,0-0.4,0.1-0.6c0.1-0.2,0.1-0.3,0.2-0.5l-0.7-0.6c-0.2-0.1-0.2-0.3-0.1-0.5c0.1-0.2,0.3-0.3,0.5-0.3h2
	c0.6,0,1,0.2,1.4,0.6S22,9.9,22,10.5V11c0,0.6-0.2,1-0.6,1.4S20.6,13,20,13z M0,18v-1.6c0-0.7,0.4-1.3,1.1-1.8C1.9,14.2,2.8,14,4,14
	c0.2,0,0.4,0,0.6,0c0.2,0,0.4,0,0.6,0.1c-0.2,0.3-0.4,0.7-0.5,1.1c-0.1,0.4-0.2,0.8-0.2,1.2V18H0z M6,18v-1.6c0-1.1,0.6-2,1.7-2.6
	c1.1-0.7,2.6-1,4.3-1c1.8,0,3.3,0.3,4.4,1c1.1,0.7,1.6,1.5,1.6,2.6V18H6z M20,14c1.2,0,2.2,0.2,2.9,0.7c0.7,0.4,1.1,1,1.1,1.8V18
	h-4.5v-1.6c0-0.4-0.1-0.8-0.2-1.2c-0.1-0.4-0.3-0.7-0.5-1.1c0.2,0,0.4-0.1,0.6-0.1S19.8,14,20,14z M12,14.8c-0.9,0-1.8,0.1-2.6,0.4
	S8.3,15.7,8.1,16h7.8c-0.2-0.3-0.6-0.6-1.3-0.9C13.8,14.9,13,14.8,12,14.8z"/>
</svg>
