<?xml version="1.0" encoding="utf-8"?>
<!-- Generator: Adobe Illustrator 23.0.3, SVG Export Plug-In . SVG Version: 6.00 Build 0)  -->
<svg version="1.1" id="Capa_1" xmlns="http://www.w3.org/2000/svg" xmlns:xlink="http://www.w3.org/1999/xlink" x="0px" y="0px"
	 width="24px" height="24px" viewBox="0 0 24 24" style="enable-background:new 0 0 24 24;" xml:space="preserve">
<style type="text/css">
	.st0{fill:#FFFFFF;}
</style>
<path class="st0" d="M14,15c0.3,0,0.5-0.1,0.7-0.3c0.2-0.2,0.3-0.5,0.3-0.7s-0.1-0.5-0.3-0.7c-0.2-0.2-0.5-0.3-0.7-0.3
	s-0.5,0.1-0.7,0.3c-0.2,0.2-0.3,0.5-0.3,0.7s0.1,0.5,0.3,0.7C13.5,14.9,13.7,15,14,15z M13.3,11.8h1.5c0-0.5,0.1-0.8,0.2-1.1
	c0.1-0.2,0.3-0.5,0.7-0.9c0.5-0.5,0.8-0.9,1-1.2s0.3-0.7,0.3-1.1c0-0.8-0.3-1.4-0.8-1.8S14.9,5,14,5c-0.7,0-1.3,0.2-1.8,0.6
	c-0.5,0.4-0.9,0.9-1.1,1.5l1.3,0.5c0.2-0.4,0.4-0.7,0.6-0.9c0.3-0.2,0.6-0.3,0.9-0.3c0.4,0,0.7,0.1,1,0.3s0.4,0.5,0.4,0.9
	c0,0.2-0.1,0.5-0.2,0.7c-0.1,0.2-0.4,0.5-0.7,0.8c-0.5,0.5-0.9,0.9-1,1.1C13.3,10.5,13.3,11,13.3,11.8z M8,18c-0.5,0-1-0.2-1.4-0.6
	C6.2,17,6,16.5,6,16V4c0-0.5,0.2-1,0.6-1.4C7,2.2,7.5,2,8,2h12c0.6,0,1,0.2,1.4,0.6S22,3.4,22,4v12c0,0.5-0.2,1-0.6,1.4
	S20.6,18,20,18H8z M8,16h12V4H8V16z M4,22c-0.5,0-1-0.2-1.4-0.6S2,20.5,2,20V6h2v14h14v2H4z M8,4v12V4z"/>
</svg>
