<?xml version="1.0" encoding="utf-8"?>
<!-- Generator: Adobe Illustrator 23.0.3, SVG Export Plug-In . SVG Version: 6.00 Build 0)  -->
<svg version="1.1" id="Capa_1" xmlns="http://www.w3.org/2000/svg" xmlns:xlink="http://www.w3.org/1999/xlink" x="0px" y="0px"
	 width="24px" height="24px" viewBox="0 0 24 24" style="enable-background:new 0 0 24 24;" xml:space="preserve">
<style type="text/css">
	.st0{fill:#FFFFFF;}
</style>
<path class="st0" d="M6,22c-0.5,0-1-0.2-1.4-0.6S4,20.5,4,20V4c0-0.5,0.2-1,0.6-1.4S5.5,2,6,2h8l6,6v4h-2V9h-5V4H6v16h6v2H6z M6,20
	V4V20z M18.3,14.5l1.1,1.1l-3.9,3.9v1h1.1l3.9-3.9l1,1.1L17.2,22H14v-3.2L18.3,14.5z M21.5,17.7l-3.2-3.2l1.4-1.4
	c0.2-0.2,0.4-0.3,0.7-0.3s0.5,0.1,0.7,0.3l1.8,1.8c0.2,0.2,0.3,0.4,0.3,0.7c0,0.3-0.1,0.5-0.3,0.7L21.5,17.7z"/>
</svg>
