<?xml version="1.0" encoding="utf-8"?>
<!-- Generator: Adobe Illustrator 23.0.3, SVG Export Plug-In . SVG Version: 6.00 Build 0)  -->
<svg version="1.1" id="Capa_1" xmlns="http://www.w3.org/2000/svg" xmlns:xlink="http://www.w3.org/1999/xlink" x="0px" y="0px"
	 width="24px" height="24px" viewBox="0 0 24 24" style="enable-background:new 0 0 24 24;" xml:space="preserve">
<style type="text/css">
	.st0{fill:#FFFFFF;}
</style>
<path class="st0" d="M6,17h5v-2H6V17z M16,17h2v-2h-2V17z M6,13h5v-2H6V13z M16,13h2V7h-2V13z M6,9h5V7H6V9z M4,21
	c-0.5,0-1-0.2-1.4-0.6S2,19.5,2,19V5c0-0.5,0.2-1,0.6-1.4S3.5,3,4,3h16c0.6,0,1,0.2,1.4,0.6S22,4.4,22,5v14c0,0.5-0.2,1-0.6,1.4
	S20.6,21,20,21H4z M4,19h16V5H4V19z M4,19V5V19z"/>
</svg>
